HIERARCHY
ROOT RootJoint
{
    OFFSET   0.000000   0.000000   0.000000
    CHANNELS 6 Xposition Yposition Zposition Xrotation Yrotation Zrotation
    JOINT pelvis_lowerback
    {
        OFFSET   0.000000   0.093605   0.000000
        CHANNELS 3 Xrotation Yrotation Zrotation
        JOINT lowerback_torso
        {
            OFFSET   0.000000   0.100000   0.000000
            CHANNELS 3 Xrotation Yrotation Zrotation
            JOINT torso_head
            {
                OFFSET   0.000000   0.282350   0.000000
                CHANNELS 3 Xrotation Yrotation Zrotation
                End Site
                {
                    OFFSET   0.000000   0.192650   0.000000
                }
            }
            JOINT rTorso_Clavicle
            {
                OFFSET  -0.001000   0.157500   0.000000
                CHANNELS 3 Xrotation Yrotation Zrotation
                JOINT rShoulder
                {
                    OFFSET  -0.117647   0.000000   0.000000
                    CHANNELS 3 Xrotation Yrotation Zrotation
                    JOINT rElbow
                    {
                        OFFSET  -0.245000   0.000000   0.000000
                        CHANNELS 3 Xrotation Yrotation Zrotation
                        JOINT rWrist
                        {
                            OFFSET  -0.240000   0.000000   0.000000
                            CHANNELS 3 Xrotation Yrotation Zrotation
                            End Site
                            {
                                OFFSET  -0.116353  -0.002500   0.000000
                            }
                        }
                    }
                }
            }
            JOINT lTorso_Clavicle
            {
                OFFSET   0.001000   0.157500   0.000000
                CHANNELS 3 Xrotation Yrotation Zrotation
                JOINT lShoulder
                {
                    OFFSET   0.117647   0.000000   0.000000
                    CHANNELS 3 Xrotation Yrotation Zrotation
                    JOINT lElbow
                    {
                        OFFSET   0.245000   0.000000   0.000000
                        CHANNELS 3 Xrotation Yrotation Zrotation
                        JOINT lWrist
                        {
                            OFFSET   0.240000   0.000000   0.000000
                            CHANNELS 3 Xrotation Yrotation Zrotation
                            End Site
                            {
                                OFFSET   0.116353  -0.002500   0.000000
                            }
                        }
                    }
                }
            }
        }
    }
    JOINT rHip
    {
        OFFSET  -0.100000  -0.051395   0.000000
        CHANNELS 3 Xrotation Yrotation Zrotation
        JOINT rKnee
        {
            OFFSET   0.000000  -0.410000   0.000000
            CHANNELS 3 Xrotation Yrotation Zrotation
            JOINT rAnkle
            {
                OFFSET   0.000000  -0.390000   0.000000
                CHANNELS 3 Xrotation Yrotation Zrotation
                JOINT rToeJoint
                {
                    OFFSET   0.000000  -0.050000   0.130000
                    CHANNELS 3 Xrotation Yrotation Zrotation
                    End Site
                    {
                        OFFSET  -0.010000   0.002000   0.060000
                    }
                }
            }
        }
    }
    JOINT lHip
    {
        OFFSET   0.100000  -0.051395   0.000000
        CHANNELS 3 Xrotation Yrotation Zrotation
        JOINT lKnee
        {
            OFFSET   0.000000  -0.410000   0.000000
            CHANNELS 3 Xrotation Yrotation Zrotation
            JOINT lAnkle
            {
                OFFSET   0.000000  -0.390000   0.000000
                CHANNELS 3 Xrotation Yrotation Zrotation
                JOINT lToeJoint
                {
                    OFFSET   0.000000  -0.050000   0.130000
                    CHANNELS 3 Xrotation Yrotation Zrotation
                    End Site
                    {
                        OFFSET   0.010000   0.002000   0.060000
                    }
                }
            }
        }
    }
}
MOTION
Frames: 15
Frame Time:   0.008333
 -4.123218   0.911584   4.335338 -157.646925 -42.136509 -155.690284  14.810048   0.307901  -1.102158   3.240486  -1.184068   0.961405   4.138450  -1.937087   1.484740   1.816584  -1.978406   5.198520   2.544417   1.120406  47.965678   0.005021  56.073331  -0.007542   1.102907   3.671699 -14.030544   3.962497   6.119657  -4.373748  -2.227987   5.935424 -49.887122   0.000164 -51.399687  -0.001221  -1.795768  -2.004189  16.296299  17.605916   7.305633  -7.844356  19.941367  -0.000010   0.001284 -19.989994  15.197678  -4.874178   0.287988  -0.000237   0.000177  -4.876136  -8.255795   4.364014  32.065281   0.017737   0.025835  -5.923543  10.394542  -2.113927  -3.309276  -0.000255  -0.001845
 -4.126100   0.911339   4.334382 -157.642216 -42.033357 -155.829205  14.788894   0.232731  -1.005815   3.365231  -1.196954   1.043122   4.017130  -1.885812   1.410982   1.783469  -1.840806   5.187809   2.418207   1.113498  47.958664   0.004993  55.016649  -0.008017   1.123509   3.944569 -14.090123   3.932033   6.176657  -4.366948  -2.155152   5.818578 -49.835411   0.000215 -51.452698  -0.000778  -1.826307  -1.958033  16.277997  17.929055   7.090741  -7.888383  19.646962  -0.000029   0.001862 -20.035026  15.500481  -4.689510   0.241934  -0.000161   0.000141  -4.869068  -8.455444   4.596201  30.927553   0.015913   0.022834  -5.897565  10.071584  -2.312943  -3.219857  -0.000015  -0.001917
 -4.128991   0.911074   4.333419 -157.641845 -41.971843 -155.963816  14.765559   0.162133  -0.915776   3.480152  -1.214077   1.120001   3.893047  -1.835155   1.334605   1.783277  -1.717912   5.191554   2.330589   1.086102  47.952777   0.004249  53.983085  -0.007505   1.085798   3.948490 -14.078330   3.895101   6.219268  -4.361758  -2.093913   5.697135 -49.793217   0.000271 -51.513480  -0.000411  -1.837803  -1.974267  16.222916  18.245783   6.870088  -7.923677  19.341302  -0.000069   0.002269 -20.081151  15.770210  -4.511920   0.202635  -0.000106   0.000112  -4.884448  -8.633414   4.829781  29.817999   0.014245   0.019847  -5.875769   9.768778  -2.498897  -3.133861   0.000160  -0.001905
 -4.131896   0.910782   4.332469 -157.655232 -41.913532 -156.102604  14.748558   0.097846  -0.833934   3.591768  -1.232853   1.190292   3.775235  -1.786452   1.260883   1.796200  -1.610239   5.202784   2.260982   1.053231  47.952023   0.003428  53.009060  -0.006815   1.028947   3.863956 -14.034868   3.858146   6.256718  -4.359602  -2.038587   5.581181 -49.756627   0.000323 -51.572629  -0.000121  -1.843254  -2.011321  16.162707  18.548686   6.655352  -7.960958  19.047907  -0.000103   0.002548 -20.138205  16.011336  -4.337975   0.168918  -0.000066   0.000096  -4.910454  -8.799002   5.057241  28.771266   0.012793   0.017294  -5.857028   9.486206  -2.671746  -3.056587   0.000267  -0.001842
 -4.134818   0.910465   4.331533 -157.684494 -41.849352 -156.249519  14.738053   0.037281  -0.758691   3.701846  -1.252250   1.255043   3.665429  -1.740419   1.191167   1.814599  -1.513930   5.218170   2.201802   1.019274  47.954728   0.002723  52.096857  -0.006174   0.967781   3.754525 -13.978965   3.823925   6.291608  -4.360608  -1.986389   5.472712 -49.724556   0.000370 -51.628049   0.000106  -1.847423  -2.051347  16.102313  18.837419   6.454770  -8.002185  18.768537  -0.000136   0.002727 -20.205571  16.234020  -4.166255   0.139916  -0.000038   0.000086  -4.941483  -8.955172   5.277631  27.792121   0.011520   0.015197  -5.840590   9.222407  -2.832395  -2.986875   0.000325  -0.001754
 -4.137761   0.910126   4.330613 -157.736396 -41.768171 -156.412085  14.732751  -0.016932  -0.689419   3.809793  -1.269136   1.314588   3.563516  -1.697068   1.125684   1.834735  -1.425824   5.235626   2.149262   0.986313  47.959544   0.002194  51.244414  -0.005664   0.907135   3.640482 -13.917778   3.793647   6.325606  -4.364328  -1.935926   5.372393 -49.696304   0.000412 -51.679191   0.000282  -1.852064  -2.087863  16.042831  19.109543   6.261412  -8.048325  18.502859  -0.000151   0.002869 -20.283360  16.432693  -3.997332   0.115091  -0.000019   0.000085  -4.972358  -9.101942   5.491908  26.878658   0.010405   0.013564  -5.826092   8.976167  -2.981736  -2.923948   0.000349  -0.001658
 -4.140725   0.909769   4.329706 -157.814762 -41.664437 -156.595230  14.731467  -0.064125  -0.625081   3.914726  -1.282090   1.369437   3.468969  -1.656323   1.064376   1.854626  -1.343934   5.253893   2.101222   0.955328  47.965513   0.001843  50.448621  -0.005304   0.848707   3.529148 -13.854619   3.767564   6.359375  -4.370378  -1.886661   5.280151 -49.671359   0.000446 -51.726033   0.000417  -1.857785  -2.118611  15.984774  19.363964   6.074101  -8.099560  18.248811  -0.000149   0.003001 -20.370303  16.608272  -3.832132   0.094224  -0.000006   0.000090  -5.000218  -9.239998   5.700801  26.027811   0.009417   0.012342  -5.813236   8.746318  -3.120580  -2.867007   0.000351  -0.001561
 -4.143757   0.909447   4.328675 -157.890388 -41.647600 -156.787662  14.669604  -0.124317  -0.553086   4.020557  -1.278925   1.422140   3.344129  -1.639040   1.018938   1.888656  -1.206451   5.280245   2.141824   0.954611  47.988186  -0.000784  49.076413  -0.002287   0.870976   3.728683 -13.826285   3.742961   6.370928  -4.400514  -1.753663   5.079086 -49.623090   0.000964 -51.889750   0.001201  -1.859446  -2.093120  15.952530  19.647757   5.747315  -8.107794  17.885297  -0.000073   0.003573 -20.391604  16.703854  -3.644246   0.034566   0.000040   0.000204  -5.032712  -9.290675   5.941958  25.081386   0.008331   0.010224  -5.801273   8.470929  -3.271375  -2.772142   0.000441  -0.001545
 -4.146817   0.909110   4.327628 -157.976577 -41.650295 -156.986033  14.606698  -0.178029  -0.484629   4.115070  -1.278545   1.472862   3.216519  -1.621643   0.971250   1.950990  -1.083997   5.327338   2.209741   0.935045  48.017479  -0.003172  47.754314   0.000364   0.843438   3.693728 -13.728587   3.716688   6.374688  -4.438305  -1.631068   4.881658 -49.588304   0.001395 -52.051155   0.001786  -1.845259  -2.118728  15.880962  19.922771   5.429189  -8.108099  17.520411  -0.000036   0.003962 -20.409509  16.787069  -3.473375  -0.031595   0.000073   0.000304  -5.077388  -9.331317   6.174948  24.170034   0.007332   0.008360  -5.792197   8.213912  -3.411890  -2.686235   0.000491  -0.001478
 -4.149905   0.908756   4.326584 -158.072250 -41.652665 -157.189875  14.550439  -0.230393  -0.420605   4.206819  -1.283131   1.521125   3.095037  -1.604372   0.924988   2.023082  -0.977566   5.384490   2.286078   0.909787  48.053916  -0.004876  46.511783   0.002170   0.799041   3.581697 -13.599309   3.691734   6.376299  -4.481147  -1.516306   4.695201 -49.561638   0.001734 -52.203147   0.002212  -1.828102  -2.157901  15.798609  20.185037   5.132416  -8.107881  17.174018  -0.000033   0.004169 -20.429226  16.864674  -3.312361  -0.108738   0.000101   0.000399  -5.125581  -9.369193   6.395489  23.314130   0.006432   0.006896  -5.784714   7.974099  -3.542583  -2.608701   0.000510  -0.001392
 -4.153025   0.908385   4.325548 -158.179208 -41.647451 -157.401881  14.501309  -0.282499  -0.360274   4.297524  -1.291510   1.567187   2.981486  -1.587859   0.881260   2.097689  -0.883400   5.446032   2.364052   0.882738  48.094016  -0.005916  45.349023   0.003229   0.750631   3.448104 -13.458288   3.669402   6.377369  -4.526744  -1.407875   4.520660 -49.540523   0.001990 -52.344890   0.002517  -1.811463  -2.197093  15.712146  20.433424   4.857006  -8.109041  16.848581  -0.000046   0.004247 -20.451129  16.937743  -3.159838  -0.197936   0.000122   0.000495  -5.173050  -9.405066   6.603923  22.515033   0.005621   0.005801  -5.778367   7.750250  -3.664163  -2.538374   0.000509  -0.001302
 -4.156180   0.908000   4.324521 -158.299425 -41.632024 -157.624377  14.458363  -0.334104  -0.303075   4.386648  -1.302462   1.611213   2.875838  -1.572289   0.840350   2.171601  -0.799046   5.508531   2.440725   0.855389  48.135301  -0.006414  44.262461   0.003717   0.702300   3.310462 -13.314552   3.649768   6.378390  -4.573340  -1.305295   4.357726 -49.523365   0.002173 -52.476744   0.002725  -1.796164  -2.232700  15.623870  20.667461   4.601534  -8.112260  16.542730  -0.000067   0.004243 -20.474713  17.006459  -3.015530  -0.299081   0.000137   0.000593  -5.217949  -9.439066   6.800846  21.770314   0.004884   0.005012  -5.772926   7.541280  -3.777290  -2.474426   0.000494  -0.001212
 -4.159372   0.907603   4.323503 -158.434138 -41.605775 -157.858779  14.420492  -0.384847  -0.248701   4.473300  -1.315143   1.653280   2.777626  -1.557685   0.802254   2.243225  -0.722870   5.569917   2.514670   0.828441  48.176242  -0.006498  43.247765   0.003797   0.655450   3.174987 -13.172518   3.632483   6.379454  -4.619622  -1.208440   4.205737 -49.509035   0.002295 -52.599378   0.002855  -1.782225  -2.264328  15.535313  20.887047   4.364534  -8.117762  16.254537  -0.000092   0.004184 -20.499266  17.070964  -2.879346  -0.412038   0.000145   0.000695  -5.259390  -9.471223   6.986704  21.076813   0.004209   0.004459  -5.768236   7.346189  -3.882574  -2.416198   0.000472  -0.001126
 -4.162674   0.907233   4.322380 -158.532775 -41.655590 -158.053120  14.334347  -0.420748  -0.198033   4.588304  -1.333355   1.678945   2.656246  -1.560029   0.780154   2.344677  -0.616292   5.645334   2.679066   0.834326  48.218558  -0.008677  41.924502   0.007031   0.659043   3.222031 -13.050556   3.615758   6.372026  -4.698489  -1.123719   3.966859 -49.464350   0.003205 -52.883075   0.003815  -1.767523  -2.181177  15.441153  21.151735   4.031295  -8.098292  15.912541  -0.000078   0.004296 -20.462260  17.006565  -2.719370  -0.600309   0.000256   0.001146  -5.305931  -9.423390   7.161298  20.345340   0.003403   0.003069  -5.782613   7.102026  -3.967029  -2.306911   0.000529  -0.001096
 -4.166039   0.906855   4.321235 -158.626325 -41.728744 -158.235594  14.246892  -0.452617  -0.151976   4.692518  -1.357845   1.699814   2.537207  -1.560334   0.754764   2.465304  -0.524566   5.732492   2.857425   0.825585  48.267317  -0.010266  40.663778   0.009469   0.636261   3.126195 -12.869456   3.588098   6.353344  -4.780034  -1.054896   3.729490 -49.431772   0.003904 -53.161875   0.004451  -1.733238  -2.174343  15.325960  21.414991   3.709373  -8.076775  15.583135  -0.000100   0.004253 -20.419268  16.939795  -2.579297  -0.813054   0.000334   0.001522  -5.361966  -9.371831   7.319914  19.647922   0.002697   0.001832  -5.797429   6.874282  -4.045854  -2.209169   0.000555  -0.001016
